<svg width="42" height="97" viewBox="0 0 42 97" fill="none" xmlns="http://www.w3.org/2000/svg">
<path d="M6.59091 18.4091C5.48485 18.4091 4.48106 18.2008 3.57955 17.7841C2.67803 17.3598 1.96212 16.75 1.43182 15.9545C0.901515 15.1515 0.636364 14.1818 0.636364 13.0455C0.636364 12.0455 0.833333 11.2348 1.22727 10.6136C1.62121 9.98485 2.14773 9.49242 2.80682 9.13636C3.46591 8.7803 4.19318 8.51515 4.98864 8.34091C5.79167 8.15909 6.59848 8.01515 7.40909 7.90909C8.4697 7.77273 9.32955 7.67045 9.98864 7.60227C10.6553 7.52651 11.1402 7.40151 11.4432 7.22727C11.7538 7.05303 11.9091 6.75 11.9091 6.31818V6.22727C11.9091 5.10606 11.6023 4.23485 10.9886 3.61364C10.3826 2.99242 9.46212 2.68182 8.22727 2.68182C6.94697 2.68182 5.94318 2.96212 5.21591 3.52273C4.48864 4.08333 3.97727 4.68182 3.68182 5.31818L1.13636 4.40909C1.59091 3.34848 2.19697 2.52273 2.95455 1.93182C3.7197 1.33333 4.55303 0.916666 5.45455 0.681818C6.36364 0.439394 7.25758 0.318182 8.13636 0.318182C8.69697 0.318182 9.34091 0.386363 10.0682 0.522726C10.803 0.651514 11.5114 0.920453 12.1932 1.32954C12.8826 1.73864 13.4545 2.35606 13.9091 3.18182C14.3636 4.00758 14.5909 5.11364 14.5909 6.5V18H11.9091V15.6364H11.7727C11.5909 16.0152 11.2879 16.4205 10.8636 16.8523C10.4394 17.2841 9.875 17.6515 9.17045 17.9545C8.46591 18.2576 7.60606 18.4091 6.59091 18.4091ZM7 16C8.06061 16 8.95455 15.7917 9.68182 15.375C10.4167 14.9583 10.9697 14.4205 11.3409 13.7614C11.7197 13.1023 11.9091 12.4091 11.9091 11.6818V9.22727C11.7955 9.36364 11.5455 9.48864 11.1591 9.60227C10.7803 9.70833 10.3409 9.80303 9.84091 9.88636C9.34848 9.96212 8.86742 10.0303 8.39773 10.0909C7.93561 10.1439 7.56061 10.1894 7.27273 10.2273C6.57576 10.3182 5.92424 10.4659 5.31818 10.6705C4.7197 10.8674 4.23485 11.1667 3.86364 11.5682C3.5 11.9621 3.31818 12.5 3.31818 13.1818C3.31818 14.1136 3.66288 14.8182 4.35227 15.2955C5.04924 15.7652 5.93182 16 7 16ZM19.4858 18V0.545454H22.0767V3.18182H22.2585C22.5767 2.31818 23.1525 1.61742 23.9858 1.07954C24.8191 0.541665 25.7585 0.272726 26.804 0.272726C27.0009 0.272726 27.2472 0.276514 27.5426 0.28409C27.8381 0.291666 28.0616 0.30303 28.2131 0.318182V3.04545C28.1222 3.02273 27.9138 2.98864 27.5881 2.94318C27.2699 2.89015 26.9328 2.86364 26.5767 2.86364C25.7282 2.86364 24.9706 3.04167 24.304 3.39773C23.6449 3.74621 23.1222 4.23106 22.7358 4.85227C22.357 5.46591 22.1676 6.16667 22.1676 6.95455V18H19.4858ZM31.392 18V0.545454H33.983V3.18182H34.1648C34.483 2.31818 35.0587 1.61742 35.892 1.07954C36.7254 0.541665 37.6648 0.272726 38.7102 0.272726C38.9072 0.272726 39.1534 0.276514 39.4489 0.28409C39.7443 0.291666 39.9678 0.30303 40.1193 0.318182V3.04545C40.0284 3.02273 39.8201 2.98864 39.4943 2.94318C39.1761 2.89015 38.839 2.86364 38.483 2.86364C37.6345 2.86364 36.8769 3.04167 36.2102 3.39773C35.5511 3.74621 35.0284 4.23106 34.642 4.85227C34.2633 5.46591 34.0739 6.16667 34.0739 6.95455V18H31.392ZM1.45455 57V39.5455H4.13636V57H1.45455ZM2.81818 36.6364C2.29545 36.6364 1.8447 36.4583 1.46591 36.1023C1.0947 35.7462 0.909091 35.3182 0.909091 34.8182C0.909091 34.3182 1.0947 33.8902 1.46591 33.5341C1.8447 33.178 2.29545 33 2.81818 33C3.34091 33 3.78788 33.178 4.15909 33.5341C4.53788 33.8902 4.72727 34.3182 4.72727 34.8182C4.72727 35.3182 4.53788 35.7462 4.15909 36.1023C3.78788 36.4583 3.34091 36.6364 2.81818 36.6364ZM16.1392 57.3636C14.5028 57.3636 13.0938 56.9773 11.9119 56.2045C10.7301 55.4318 9.82102 54.3674 9.18466 53.0114C8.5483 51.6553 8.23011 50.1061 8.23011 48.3636C8.23011 46.5909 8.55587 45.0265 9.20739 43.6705C9.86648 42.3068 10.7831 41.2424 11.9574 40.4773C13.1392 39.7045 14.518 39.3182 16.0938 39.3182C17.321 39.3182 18.4271 39.5455 19.4119 40C20.3968 40.4545 21.2036 41.0909 21.8324 41.9091C22.4612 42.7273 22.8513 43.6818 23.0028 44.7727H20.321C20.1165 43.9773 19.6619 43.2727 18.9574 42.6591C18.2604 42.0379 17.321 41.7273 16.1392 41.7273C15.0938 41.7273 14.1771 42 13.3892 42.5455C12.6089 43.0833 11.9991 43.8447 11.5597 44.8295C11.1278 45.8068 10.9119 46.9545 10.9119 48.2727C10.9119 49.6212 11.1241 50.7955 11.5483 51.7955C11.9801 52.7955 12.5862 53.572 13.3665 54.125C14.1544 54.678 15.0786 54.9545 16.1392 54.9545C16.8362 54.9545 17.4688 54.8333 18.0369 54.5909C18.6051 54.3485 19.0862 54 19.4801 53.5455C19.8741 53.0909 20.1544 52.5455 20.321 51.9091H23.0028C22.8513 52.9394 22.4763 53.8674 21.8778 54.6932C21.2869 55.5114 20.5028 56.1629 19.5256 56.6477C18.5559 57.125 17.4271 57.3636 16.1392 57.3636ZM29.6051 46.5V57H26.9233V33.7273H29.6051V42.2727H29.8324C30.2415 41.3712 30.8551 40.6553 31.6733 40.125C32.4991 39.5871 33.5975 39.3182 34.9688 39.3182C36.1581 39.3182 37.1998 39.5568 38.0938 40.0341C38.9877 40.5038 39.6809 41.2273 40.1733 42.2045C40.6733 43.1742 40.9233 44.4091 40.9233 45.9091V57H38.2415V46.0909C38.2415 44.7045 37.8816 43.6326 37.1619 42.875C36.4498 42.1098 35.4612 41.7273 34.196 41.7273C33.3172 41.7273 32.5294 41.9129 31.8324 42.2841C31.143 42.6553 30.5975 43.197 30.196 43.9091C29.8021 44.6212 29.6051 45.4848 29.6051 46.5ZM1.45455 96V78.5455H4.13636V96H1.45455ZM2.81818 75.6364C2.29545 75.6364 1.8447 75.4583 1.46591 75.1023C1.0947 74.7462 0.909091 74.3182 0.909091 73.8182C0.909091 73.3182 1.0947 72.8902 1.46591 72.5341C1.8447 72.178 2.29545 72 2.81818 72C3.34091 72 3.78788 72.178 4.15909 72.5341C4.53788 72.8902 4.72727 73.3182 4.72727 73.8182C4.72727 74.3182 4.53788 74.7462 4.15909 75.1023C3.78788 75.4583 3.34091 75.6364 2.81818 75.6364ZM16.1392 96.3636C14.5634 96.3636 13.1809 95.9886 11.9915 95.2386C10.8097 94.4886 9.88542 93.4394 9.21875 92.0909C8.55966 90.7424 8.23011 89.1667 8.23011 87.3636C8.23011 85.5455 8.55966 83.9583 9.21875 82.6023C9.88542 81.2462 10.8097 80.1932 11.9915 79.4432C13.1809 78.6932 14.5634 78.3182 16.1392 78.3182C17.715 78.3182 19.0938 78.6932 20.2756 79.4432C21.465 80.1932 22.3892 81.2462 23.0483 82.6023C23.715 83.9583 24.0483 85.5455 24.0483 87.3636C24.0483 89.1667 23.715 90.7424 23.0483 92.0909C22.3892 93.4394 21.465 94.4886 20.2756 95.2386C19.0938 95.9886 17.715 96.3636 16.1392 96.3636ZM16.1392 93.9545C17.3362 93.9545 18.321 93.6477 19.0938 93.0341C19.8665 92.4205 20.4384 91.6136 20.8097 90.6136C21.1809 89.6136 21.3665 88.5303 21.3665 87.3636C21.3665 86.197 21.1809 85.1098 20.8097 84.1023C20.4384 83.0947 19.8665 82.2803 19.0938 81.6591C18.321 81.0379 17.3362 80.7273 16.1392 80.7273C14.9422 80.7273 13.9574 81.0379 13.1847 81.6591C12.4119 82.2803 11.84 83.0947 11.4688 84.1023C11.0975 85.1098 10.9119 86.197 10.9119 87.3636C10.9119 88.5303 11.0975 89.6136 11.4688 90.6136C11.84 91.6136 12.4119 92.4205 13.1847 93.0341C13.9574 93.6477 14.9422 93.9545 16.1392 93.9545ZM30.8239 85.5V96H28.142V78.5455H30.733V81.2727H30.9602C31.3693 80.3864 31.9905 79.6742 32.8239 79.1364C33.6572 78.5909 34.733 78.3182 36.0511 78.3182C37.233 78.3182 38.267 78.5606 39.1534 79.0455C40.0398 79.5227 40.7292 80.25 41.2216 81.2273C41.714 82.197 41.9602 83.4242 41.9602 84.9091V96H39.2784V85.0909C39.2784 83.7197 38.9223 82.6515 38.2102 81.8864C37.4981 81.1136 36.5208 80.7273 35.2784 80.7273C34.4223 80.7273 33.6572 80.9129 32.983 81.2841C32.3163 81.6553 31.7898 82.197 31.4034 82.9091C31.017 83.6212 30.8239 84.4848 30.8239 85.5Z" fill="white"/>
</svg>
